<?xml version="1.0" encoding="utf-8"?>
<svg version="1.1" xmlns:xlink="http://www.w3.org/1999/xlink" width="120px" height="120px" xmlns="http://www.w3.org/2000/svg">
  <g transform="matrix(1 0 0 1 -2074 -277 )">
    <path d="M 2074 277  L 2194 277  L 2194 397  L 2074 397  L 2074 277  " fill-rule="nonzero" fill="#cccccc" stroke="none" />
    <path d="M 2082 285  L 2186 285  L 2186 389  L 2082 389  L 2082 285  " fill-rule="nonzero" fill="#ffffff" stroke="none" />
    <path d="M 2145.4 313  C 2140.36 313  2136.4 309.04  2136.4 304  C 2136.4 298.96  2140.36 295  2145.4 295  C 2150.44 295  2154.4 298.96  2154.4 304  C 2154.4 309.04  2150.44 313  2145.4 313  " fill-rule="nonzero" fill="#cccccc" stroke="none" />
    <path d="M 2085 386  L 2085 332.1  L 2109.5 307.6  L 2143.8 327.2  L 2163.4 322.3  L 2183 327.2  L 2183 386  L 2085 386  " fill-rule="nonzero" fill="#169bd5" stroke="none" />
  </g>
</svg>