<?xml version="1.0" encoding="utf-8"?>
<svg version="1.1" xmlns:xlink="http://www.w3.org/1999/xlink" width="29px" height="24px" xmlns="http://www.w3.org/2000/svg">
  <g transform="matrix(1 0 0 1 -1664 -1127 )">
    <path d="M 28.0240384615385 8.60491493383743  C 28.6746794871795 8.69565217391304  29 8.92753623188406  29 9.30056710775047  C 29 9.52236925015753  28.8489583333333 9.7643352236925  28.546875 10.0264650283554  L 22.2205528846154 15.3799621928166  L 23.7193509615385 22.9413988657845  C 23.7309695512821 23.0119722747322  23.7367788461538 23.1127914303718  23.7367788461538 23.2438563327032  C 23.7367788461538 23.4555765595463  23.67578125 23.6345305608066  23.5537860576923 23.7807183364839  C 23.4317908653846 23.9269061121613  23.2546073717949 24  23.0222355769231 24  C 22.8014823717949 24  22.5691105769231 23.9395085066163  22.3251201923077 23.8185255198488  L 14.5 20.2495274102079  L 6.67487980769231 23.8185255198488  C 6.41927083333333 23.9395085066163  6.18689903846154 24  5.97776442307692 24  C 5.73377403846154 24  5.55078125 23.9269061121613  5.42878605769231 23.7807183364839  C 5.30679086538462 23.6345305608066  5.24579326923077 23.4555765595463  5.24579326923077 23.2438563327032  C 5.24579326923077 23.1833648393195  5.25741185897436 23.0825456836799  5.28064903846154 22.9413988657845  L 6.77944711538462 15.3799621928166  L 0.435697115384615 10.0264650283554  C 0.145232371794872 9.75425330812854  0 9.51228733459357  0 9.30056710775047  C 0 8.92753623188406  0.325320512820513 8.69565217391304  0.975961538461538 8.60491493383743  L 9.72475961538462 7.50094517958412  L 13.6460336538462 0.620037807183364  C 13.8667868589744 0.20667926906112  14.1514423076923 0  14.5 0  C 14.8485576923077 0  15.1332131410256 0.20667926906112  15.3539663461538 0.620037807183364  L 19.2752403846154 7.50094517958412  L 28.0240384615385 8.60491493383743  Z " fill-rule="nonzero" fill="#000000" stroke="none" transform="matrix(1 0 0 1 1664 1127 )" />
  </g>
</svg>