<?xml version="1.0" encoding="utf-8"?>
<svg version="1.1" xmlns:xlink="http://www.w3.org/1999/xlink" width="61px" height="64px" xmlns="http://www.w3.org/2000/svg">
  <g transform="matrix(1 0 0 1 -1833 -1306 )">
    <path d="M 49.5191761363636 29.5  C 49.7791193181818 29.7727272727273  49.9090909090909 30.1212121212121  49.9090909090909 30.5454545454545  L 49.9090909090909 33.4545454545455  C 49.9090909090909 33.8787878787879  49.7791193181818 34.2272727272727  49.5191761363636 34.5  C 49.2592329545455 34.7727272727273  48.9270833333333 34.9090909090909  48.5227272727273 35  L 33 35  L 33 50.9090909090909  C 33.2727272727273 51.3333333333333  33.1427556818182 51.6818181818182  32.8828125 51.9545454545455  C 32.6228693181818 52.2272727272727  32.2907196969697 52.3636363636364  31.8863636363636 52.3636363636364  L 29.1136363636364 52.3636363636364  C 28.7092803030303 52.3636363636364  28.3771306818182 52.2272727272727  28.1171875 51.9545454545455  C 27.8572443181818 51.6818181818182  27.7272727272727 51.3333333333333  28 50.9090909090909  L 28 35  L 12.4772727272727 35  C 12.0729166666667 34.9090909090909  11.7407670454545 34.7727272727273  11.4808238636364 34.5  C 11.2208806818182 34.2272727272727  11.0909090909091 33.8787878787879  11.0909090909091 33.4545454545455  L 11.0909090909091 30.5454545454545  C 11.0909090909091 30.1212121212121  11.2208806818182 29.7727272727273  11.4808238636364 29.5  C 11.7407670454545 29.2272727272727  12.0729166666667 29.0909090909091  12.4772727272727 29  L 28 29  L 28 13.0909090909091  C 27.7272727272727 12.6666666666667  27.8572443181818 12.3181818181818  28.1171875 12.0454545454545  C 28.3771306818182 11.7727272727273  28.7092803030303 11.6363636363636  29.1136363636364 11.6363636363636  L 31.8863636363636 11.6363636363636  C 32.2907196969697 11.6363636363636  32.6228693181818 11.7727272727273  32.8828125 12.0454545454545  C 33.1427556818182 12.3181818181818  33.2727272727273 12.6666666666667  33 13.0909090909091  L 33 29  L 48.5227272727273 29  C 48.9270833333333 29.0909090909091  49.2592329545455 29.2272727272727  49.5191761363636 29.5  Z M 53.4183238636364 56.0454545454545  C 54.7758049242424 54.6212121212121  55.4545454545455 52.9090909090909  55 50.9090909090909  L 55 13.0909090909091  C 55.4545454545455 11.0909090909091  54.7758049242424 9.37878787878788  53.4183238636364 7.95454545454545  C 52.0608428030303 6.53030303030302  50.4289772727273 5.81818181818182  48.5227272727273 6  L 12.4772727272727 6  C 10.5710227272727 5.81818181818182  8.9391571969697 6.53030303030302  7.58167613636364 7.95454545454545  C 6.22419507575758 9.37878787878788  5.54545454545455 11.0909090909091  6 13.0909090909091  L 6 50.9090909090909  C 5.54545454545455 52.9090909090909  6.22419507575758 54.6212121212121  7.58167613636364 56.0454545454545  C 8.9391571969697 57.469696969697  10.5710227272727 58.1818181818182  12.4772727272727 58  L 48.5227272727273 58  C 50.4289772727273 58.1818181818182  52.0608428030303 57.469696969697  53.4183238636364 56.0454545454545  Z M 57.3391335227273 3.84090909090909  C 59.7797111742424 6.40151515151515  61 9.48484848484848  61 13.0909090909091  L 61 50.9090909090909  C 61 54.5151515151515  59.7797111742424 57.5984848484849  57.3391335227273 60.1590909090909  C 54.8985558712121 62.719696969697  51.9597537878788 64  48.5227272727273 64  L 12.4772727272727 64  C 9.04024621212121 64  6.10144412878788 62.719696969697  3.66086647727273 60.1590909090909  C 1.22028882575758 57.5984848484849  0 54.5151515151515  0 50.9090909090909  L 0 13.0909090909091  C 0 9.48484848484848  1.22028882575758 6.40151515151515  3.66086647727273 3.84090909090909  C 6.10144412878788 1.28030303030302  9.04024621212121 0  12.4772727272727 0  L 48.5227272727273 0  C 51.9597537878788 0  54.8985558712121 1.28030303030302  57.3391335227273 3.84090909090909  Z " fill-rule="nonzero" fill="#000000" stroke="none" transform="matrix(1 0 0 1 1833 1306 )" />
  </g>
</svg>