<?xml version="1.0" encoding="utf-8"?>
<svg version="1.1" xmlns:xlink="http://www.w3.org/1999/xlink" width="64px" height="64px" xmlns="http://www.w3.org/2000/svg">
  <g transform="matrix(1 0 0 1 -1605 -1306 )">
    <path d="M 19.4666666666667 13  C 20.7111111111111 14.5555555555556  21.3333333333333 16.4444444444444  21.3333333333333 18.6666666666667  C 21.3333333333333 20.8888888888889  20.7111111111111 22.7777777777778  19.4666666666667 24.3333333333333  C 18.2222222222222 25.8888888888889  16.7111111111111 26.6666666666667  14.9333333333333 26.6666666666667  C 13.1555555555556 26.6666666666667  11.6444444444444 25.8888888888889  10.4 24.3333333333333  C 9.15555555555556 22.7777777777778  8.53333333333333 20.8888888888889  8.53333333333333 18.6666666666667  C 8.53333333333333 16.4444444444444  9.15555555555556 14.5555555555556  10.4 13  C 11.6444444444444 11.4444444444444  13.1555555555556 10.6666666666667  14.9333333333333 10.6666666666667  C 16.7111111111111 10.6666666666667  18.2222222222222 11.4444444444444  19.4666666666667 13  Z M 41.6 17.3333333333333  L 55 34.6666666666667  L 55 53  L 8.53333333333333 53  L 8.53333333333333 45.3333333333333  L 19.2 32  L 24.5333333333333 38.6666666666667  L 41.6 17.3333333333333  Z M 59.4166666666667 5.72916666666666  C 59.2055555555556 5.46527777777777  58.9555555555556 5.33333333333334  58.6666666666667 6  L 5.33333333333333 6  C 5.04444444444445 5.33333333333334  4.79444444444445 5.46527777777777  4.58333333333333 5.72916666666666  C 4.37222222222222 5.99305555555555  4.26666666666667 6.30555555555555  5 6.66666666666666  L 5 57.3333333333333  C 4.26666666666667 57.6944444444445  4.37222222222222 58.0069444444445  4.58333333333333 58.2708333333333  C 4.79444444444445 58.5347222222222  5.04444444444445 58.6666666666667  5.33333333333333 58  L 58.6666666666667 58  C 58.9555555555556 58.6666666666667  59.2055555555556 58.5347222222222  59.4166666666667 58.2708333333333  C 59.6277777777778 58.0069444444445  59.7333333333333 57.6944444444445  59 57.3333333333333  L 59 6.66666666666666  C 59.7333333333333 6.30555555555555  59.6277777777778 5.99305555555555  59.4166666666667 5.72916666666666  Z M 62.4333333333333 1.95833333333334  C 63.4777777777778 3.26388888888889  64 4.83333333333334  64 6.66666666666666  L 64 57.3333333333333  C 64 59.1666666666667  63.4777777777778 60.7361111111111  62.4333333333333 62.0416666666667  C 61.3888888888889 63.3472222222222  60.1333333333333 64  58.6666666666667 64  L 5.33333333333333 64  C 3.86666666666667 64  2.61111111111111 63.3472222222222  1.56666666666667 62.0416666666667  C 0.522222222222222 60.7361111111111  0 59.1666666666667  0 57.3333333333333  L 0 6.66666666666666  C 0 4.83333333333334  0.522222222222222 3.26388888888889  1.56666666666667 1.95833333333334  C 2.61111111111111 0.652777777777771  3.86666666666667 0  5.33333333333333 0  L 58.6666666666667 0  C 60.1333333333333 0  61.3888888888889 0.652777777777771  62.4333333333333 1.95833333333334  Z " fill-rule="nonzero" fill="#000000" stroke="none" transform="matrix(1 0 0 1 1605 1306 )" />
  </g>
</svg>