<?xml version="1.0" encoding="utf-8"?>
<svg version="1.1" xmlns:xlink="http://www.w3.org/1999/xlink" width="15px" height="17px" xmlns="http://www.w3.org/2000/svg">
  <g transform="matrix(1 0 0 1 -312 -248 )">
    <path d="M 14.9680397727273 13.1725852272727  C 14.9893465909091 13.2289299242424  15 13.313446969697  15 13.4261363636364  C 15 13.6434659090909  14.9644886363636 13.9272017045455  14.8934659090909 14.27734375  C 14.8224431818182 14.6274857954545  14.7478693181818 14.9031723484848  14.6697443181818 15.1044034090909  C 14.5205965909091 15.506865530303  14.0873579545455 15.9334753787879  13.3700284090909 16.3842329545455  C 12.7024147727273 16.7947443181818  12.0419034090909 17  11.3884943181818 17  C 11.1967329545455 17  11.0085227272727 16.9859138257576  10.8238636363636 16.9577414772727  C 10.6392045454545 16.9295691287879  10.4350142045455 16.8792613636364  10.2112926136364 16.8068181818182  C 9.98757102272727 16.734375  9.82066761363637 16.6760179924242  9.71058238636364 16.6317471590909  C 9.60049715909091 16.5874763257576  9.40340909090909 16.5049715909091  9.11931818181818 16.3842329545455  C 8.83522727272727 16.2634943181818  8.66122159090909 16.1910511363636  8.59730113636364 16.1669034090909  C 7.90127840909091 15.8851799242424  7.27982954545455 15.5511363636364  6.73295454545455 15.1647727272727  C 5.83096590909091 14.5288825757576  4.89346590909091 13.6595643939394  3.92045454545455 12.5568181818182  C 2.94744318181818 11.454071969697  2.18039772727273 10.391571969697  1.61931818181818 9.36931818181818  C 1.27840909090909 8.74952651515152  0.983664772727273 8.0452178030303  0.735085227272727 7.25639204545455  C 0.713778409090909 7.18394886363636  0.649857954545455 6.98674242424242  0.543323863636364 6.66477272727273  C 0.436789772727273 6.34280303030303  0.363991477272727 6.1194365530303  0.324928977272727 5.99467329545455  C 0.285866477272727 5.86991003787879  0.234375 5.68075284090909  0.170454545454545 5.42720170454545  C 0.106534090909091 5.17365056818182  0.0621448863636364 4.94223484848485  0.0372869318181818 4.73295454545455  C 0.0124289772727273 4.52367424242424  0 4.31036931818182  0 4.09303977272727  C 0 3.35250946969697  0.181107954545455 2.60392992424242  0.543323863636364 1.84730113636364  C 0.941051136363636 1.03432765151515  1.31747159090909 0.543323863636364  1.67258522727273 0.374289772727272  C 1.85014204545455 0.285748106060605  2.09339488636364 0.201231060606059  2.40234375 0.120738636363636  C 2.71129261363636 0.0402462121212114  2.96164772727273 0  3.15340909090909 0  C 3.25284090909091 0  3.32741477272727 0.012073863636364  3.37713068181818 0.0362215909090901  C 3.50497159090909 0.084517045454546  3.69318181818182 0.390388257575757  3.94176136363636 0.953835227272728  C 4.01988636363636 1.10677083333333  4.12642045454546 1.32410037878788  4.26136363636364 1.60582386363636  C 4.39630681818182 1.88754734848485  4.52059659090909 2.14311079545455  4.63423295454546 2.37251420454545  C 4.74786931818182 2.60191761363636  4.85795454545455 2.81723484848485  4.96448863636364 3.01846590909091  C 4.98579545454546 3.05066287878788  5.04794034090909 3.15127840909091  5.15092329545455 3.3203125  C 5.25390625 3.48934659090909  5.33025568181818 3.63222064393939  5.37997159090909 3.74893465909091  C 5.4296875 3.86564867424242  5.45454545454546 3.98035037878788  5.45454545454546 4.09303977272727  C 5.45454545454546 4.25402462121212  5.35333806818182 4.45525568181818  5.15092329545455 4.69673295454545  C 4.94850852272727 4.93821022727273  4.72833806818182 5.15956439393939  4.49041193181818 5.36079545454545  C 4.25248579545455 5.56202651515151  4.03231534090909 5.77533143939394  3.82990056818182 6.00071022727273  C 3.62748579545455 6.22608901515151  3.52627840909091 6.41122159090909  3.52627840909091 6.55610795454545  C 3.52627840909091 6.62855113636364  3.54403409090909 6.71910511363636  3.57954545454545 6.82776988636364  C 3.61505681818182 6.93643465909091  3.64524147727273 7.01893939393939  3.67009943181818 7.07528409090909  C 3.69495738636364 7.13162878787879  3.74467329545455 7.2282196969697  3.81924715909091 7.36505681818182  C 3.89382102272727 7.50189393939394  3.93465909090909 7.57836174242424  3.94176136363636 7.59446022727273  C 4.48153409090909 8.69720643939394  5.09943181818182 9.64299242424242  5.79545454545455 10.4318181818182  C 6.49147727272727 11.2206439393939  7.32599431818182 11.920928030303  8.29900568181818 12.5326704545455  C 8.31321022727273 12.5407196969697  8.38068181818182 12.5870028409091  8.50142045454546 12.6715198863636  C 8.62215909090909 12.7560369318182  8.70738636363637 12.8123816287879  8.75710227272727 12.8405539772727  C 8.80681818181818 12.8687263257576  8.87961647727273 12.9029356060606  8.97549715909091 12.9431818181818  C 9.07137784090909 12.983428030303  9.15127840909091 13.0035511363636  9.21519886363636 13.0035511363636  C 9.34303977272727 13.0035511363636  9.50639204545455 12.8888494318182  9.70525568181818 12.6594460227273  C 9.90411931818182 12.4300426136364  10.0923295454545 12.1805160984848  10.2698863636364 11.9108664772727  C 10.4474431818182 11.6412168560606  10.6427556818182 11.3916903409091  10.8558238636364 11.1622869318182  C 11.0688920454545 10.9328835227273  11.2464488636364 10.8181818181818  11.3884943181818 10.8181818181818  C 11.4879261363636 10.8181818181818  11.5891335227273 10.8463541666667  11.6921164772727 10.9026988636364  C 11.7950994318182 10.9590435606061  11.9211647727273 11.0455729166667  12.0703125 11.1622869318182  C 12.2194602272727 11.2790009469697  12.3082386363636 11.3494318181818  12.3366477272727 11.3735795454545  C 12.5142045454545 11.4943181818182  12.7041903409091 11.6190814393939  12.9066051136364 11.7478693181818  C 13.1090198863636 11.8766571969697  13.3345170454545 12.0175189393939  13.5830965909091 12.1704545454545  C 13.8316761363636 12.3233901515152  14.0234375 12.4441287878788  14.1583806818182 12.5326704545455  C 14.6555397727273 12.8143939393939  14.9254261363636 13.0276988636364  14.9680397727273 13.1725852272727  Z " fill-rule="nonzero" fill="#000000" stroke="none" transform="matrix(1 0 0 1 312 248 )" />
  </g>
</svg>