<?xml version="1.0" encoding="utf-8"?>
<svg version="1.1" xmlns:xlink="http://www.w3.org/1999/xlink" width="60px" height="60px" xmlns="http://www.w3.org/2000/svg">
  <g transform="matrix(1 0 0 1 -264 -571 )">
    <path d="M 264 571  L 324 571  L 324 631  L 264 631  L 264 571  " fill-rule="nonzero" fill="#cccccc" stroke="none" />
    <path d="M 268 575  L 320 575  L 320 627  L 268 627  L 268 575  " fill-rule="nonzero" fill="#ffffff" stroke="none" />
    <path d="M 299.7 589  C 297.18 589  295.2 587.02  295.2 584.5  C 295.2 581.98  297.18 580  299.7 580  C 302.22 580  304.2 581.98  304.2 584.5  C 304.2 587.02  302.22 589  299.7 589  " fill-rule="nonzero" fill="#cccccc" stroke="none" />
    <path d="M 270 626  L 270 599.05  L 282.25 586.8  L 299.4 596.6  L 309.2 594.15  L 319 596.6  L 319 626  L 270 626  " fill-rule="nonzero" fill="#169bd5" stroke="none" />
  </g>
</svg>