<?xml version="1.0" encoding="utf-8"?>
<svg version="1.1" xmlns:xlink="http://www.w3.org/1999/xlink" width="215px" height="32px" xmlns="http://www.w3.org/2000/svg">
  <g transform="matrix(1 0 0 1 -294 -310 )">
    <path d="M 295 314  A 3 3 0 0 1 298 311 L 505 311  A 3 3 0 0 1 508 314 L 508 338  A 3 3 0 0 1 505 341 L 298 341  A 3 3 0 0 1 295 338 L 295 314  Z " fill-rule="nonzero" fill="#ffffff" stroke="none" />
    <path d="M 294.5 314  A 3.5 3.5 0 0 1 298 310.5 L 505 310.5  A 3.5 3.5 0 0 1 508.5 314 L 508.5 338  A 3.5 3.5 0 0 1 505 341.5 L 298 341.5  A 3.5 3.5 0 0 1 294.5 338 L 294.5 314  Z " stroke-width="1" stroke-dasharray="9,4" stroke="#d9d9d9" fill="none" stroke-dashoffset="0.5" />
  </g>
</svg>