<?xml version="1.0" encoding="utf-8"?>
<svg version="1.1" xmlns:xlink="http://www.w3.org/1999/xlink" width="39px" height="35px" xmlns="http://www.w3.org/2000/svg">
  <g transform="matrix(1 0 0 1 -470 -102 )">
    <path d="M 25.0714285714286 27.412109375  C 25.2600446428571 27.412109375  25.4268973214286 27.3361545138889  25.5719866071429 27.1842447916667  L 28.7494419642857 23.857421875  C 28.89453125 23.7055121527778  28.9670758928571 23.5308159722222  28.9670758928571 23.3333333333333  C 28.9670758928571 23.1358506944444  28.89453125 22.9611545138889  28.7494419642857 22.8092447916667  L 23.6785714285714 17.5  L 28.7494419642857 12.1907552083333  C 28.89453125 12.0388454861111  28.9670758928571 11.8641493055556  28.9670758928571 11.6666666666667  C 28.9670758928571 11.4691840277778  28.89453125 11.2944878472222  28.7494419642857 11.142578125  L 25.5719866071429 7.81575520833333  C 25.4268973214286 7.66384548611111  25.2600446428571 7.587890625  25.0714285714286 7.587890625  C 24.8828125 7.587890625  24.7159598214286 7.66384548611111  24.5708705357143 7.81575520833333  L 19.5 13.125  L 14.4291294642857 7.81575520833333  C 14.2840401785714 7.66384548611111  14.1171875 7.587890625  13.9285714285714 7.587890625  C 13.7399553571429 7.587890625  13.5731026785714 7.66384548611111  13.4280133928571 7.81575520833333  L 10.2505580357143 11.142578125  C 10.10546875 11.2944878472222  10.0329241071429 11.4691840277778  10.0329241071429 11.6666666666667  C 10.0329241071429 11.8641493055556  10.10546875 12.0388454861111  10.2505580357143 12.1907552083333  L 15.3214285714286 17.5  L 10.2505580357143 22.8092447916667  C 10.10546875 22.9611545138889  10.0329241071429 23.1358506944444  10.0329241071429 23.3333333333333  C 10.0329241071429 23.5308159722222  10.10546875 23.7055121527778  10.2505580357143 23.857421875  L 13.4280133928571 27.1842447916667  C 13.5731026785714 27.3361545138889  13.7399553571429 27.412109375  13.9285714285714 27.412109375  C 14.1171875 27.412109375  14.2840401785714 27.3361545138889  14.4291294642857 27.1842447916667  L 19.5 21.875  L 24.5708705357143 27.1842447916667  C 24.7159598214286 27.3361545138889  24.8828125 27.412109375  25.0714285714286 27.412109375  Z M 37.9771205357143 1.07096354166667  C 38.6590401785714 1.78493923611111  39 2.64322916666667  39 3.64583333333333  L 39 31.3541666666667  C 39 32.3567708333333  38.6590401785714 33.2150607638889  37.9771205357143 33.9290364583333  C 37.2952008928572 34.6430121527778  36.4754464285714 35  35.5178571428571 35  L 3.48214285714286 35  C 2.52455357142857 35  1.70479910714286 34.6430121527778  1.02287946428571 33.9290364583333  C 0.340959821428571 33.2150607638889  0 32.3567708333333  0 31.3541666666667  L 0 3.64583333333333  C 0 2.64322916666667  0.340959821428571 1.78493923611111  1.02287946428571 1.07096354166667  C 1.70479910714286 0.356987847222219  2.52455357142857 0  3.48214285714286 0  L 35.5178571428571 0  C 36.4754464285714 0  37.2952008928572 0.356987847222219  37.9771205357143 1.07096354166667  Z " fill-rule="nonzero" fill="#000000" stroke="none" transform="matrix(1 0 0 1 470 102 )" />
  </g>
</svg>