<?xml version="1.0" encoding="utf-8"?>
<svg version="1.1" xmlns:xlink="http://www.w3.org/1999/xlink" width="215px" height="188px" xmlns="http://www.w3.org/2000/svg">
  <g transform="matrix(1 0 0 1 -294 -102 )">
    <path d="M 294 102  L 509 102  L 509 290  L 294 290  L 294 102  " fill-rule="nonzero" fill="#cccccc" stroke="none" />
    <path d="M 307 115  L 496 115  L 496 277  L 307 277  L 307 115  " fill-rule="nonzero" fill="#ffffff" stroke="none" />
    <path d="M 419.9 158.4  C 412.004 158.4  405.8 152.196  405.8 144.3  C 405.8 136.404  412.004 130.2  419.9 130.2  C 427.796 130.2  434 136.404  434 144.3  C 434 152.196  427.796 158.4  419.9 158.4  " fill-rule="nonzero" fill="#cccccc" stroke="none" />
    <path d="M 312 273  L 312 188.85  L 357 150.6  L 420 192.728372093023  L 456 173.55  L 492 192.728372093023  L 492 273  L 312 273  " fill-rule="nonzero" fill="#169bd5" stroke="none" />
  </g>
</svg>