<?xml version="1.0" encoding="utf-8"?>
<svg version="1.1" xmlns:xlink="http://www.w3.org/1999/xlink" width="28px" height="28px" xmlns="http://www.w3.org/2000/svg">
  <defs>
    <filter x="980px" y="2394px" width="28px" height="28px" filterUnits="userSpaceOnUse" id="filter12">
      <feOffset dx="0" dy="1" in="SourceAlpha" result="shadowOffsetInner" />
      <feGaussianBlur stdDeviation="1" in="shadowOffsetInner" result="shadowGaussian" />
      <feComposite in2="shadowGaussian" operator="atop" in="SourceAlpha" result="shadowComposite" />
      <feColorMatrix type="matrix" values="0 0 0 0 0  0 0 0 0 0  0 0 0 0 0  0 0 0 0.349019607843137 0  " in="shadowComposite" />
    </filter>
    <g id="widget13">
      <path d="M 994 2395  C 1000.72 2395  1006 2400.28  1006 2407  C 1006 2413.72  1000.72 2419  994 2419  C 987.28 2419  982 2413.72  982 2407  C 982 2400.28  987.28 2395  994 2395  Z " fill-rule="nonzero" fill="#ffffff" stroke="none" />
      <path d="M 994 2395.5  C 1000.44 2395.5  1005.5 2400.56  1005.5 2407  C 1005.5 2413.44  1000.44 2418.5  994 2418.5  C 987.56 2418.5  982.5 2413.44  982.5 2407  C 982.5 2400.56  987.56 2395.5  994 2395.5  Z " stroke-width="1" stroke="#d9d9d9" fill="none" />
    </g>
  </defs>
  <g transform="matrix(1 0 0 1 -980 -2394 )">
    <use xlink:href="#widget13" filter="url(#filter12)" />
    <use xlink:href="#widget13" />
  </g>
</svg>