<?xml version="1.0" encoding="utf-8"?>
<svg version="1.1" xmlns:xlink="http://www.w3.org/1999/xlink" width="64px" height="64px" xmlns="http://www.w3.org/2000/svg">
  <g transform="matrix(1 0 0 1 -768 -1936 )">
    <path d="M 800 1936  C 817.92 1936  832 1950.08  832 1968  C 832 1985.92  817.92 2000  800 2000  C 782.08 2000  768 1985.92  768 1968  C 768 1950.08  782.08 1936  800 1936  Z " fill-rule="nonzero" fill="#e9e9e9" stroke="none" />
    <path d="M 800 1936.5  C 817.64 1936.5  831.5 1950.36  831.5 1968  C 831.5 1985.64  817.64 1999.5  800 1999.5  C 782.36 1999.5  768.5 1985.64  768.5 1968  C 768.5 1950.36  782.36 1936.5  800 1936.5  Z " stroke-width="1" stroke="#ffffff" fill="none" />
  </g>
</svg>