<?xml version="1.0" encoding="utf-8"?>
<svg version="1.1" xmlns:xlink="http://www.w3.org/1999/xlink" width="28px" height="28px" xmlns="http://www.w3.org/2000/svg">
  <defs>
    <filter x="983px" y="2394px" width="28px" height="28px" filterUnits="userSpaceOnUse" id="filter2">
      <feOffset dx="0" dy="1" in="SourceAlpha" result="shadowOffsetInner" />
      <feGaussianBlur stdDeviation="1" in="shadowOffsetInner" result="shadowGaussian" />
      <feComposite in2="shadowGaussian" operator="atop" in="SourceAlpha" result="shadowComposite" />
      <feColorMatrix type="matrix" values="0 0 0 0 0  0 0 0 0 0  0 0 0 0 0  0 0 0 0.349019607843137 0  " in="shadowComposite" />
    </filter>
    <g id="widget3">
      <path d="M 997 2395  C 1003.72 2395  1009 2400.28  1009 2407  C 1009 2413.72  1003.72 2419  997 2419  C 990.28 2419  985 2413.72  985 2407  C 985 2400.28  990.28 2395  997 2395  Z " fill-rule="nonzero" fill="#ffffff" stroke="none" />
      <path d="M 997 2395.5  C 1003.44 2395.5  1008.5 2400.56  1008.5 2407  C 1008.5 2413.44  1003.44 2418.5  997 2418.5  C 990.56 2418.5  985.5 2413.44  985.5 2407  C 985.5 2400.56  990.56 2395.5  997 2395.5  Z " stroke-width="1" stroke="#d9d9d9" fill="none" />
    </g>
  </defs>
  <g transform="matrix(1 0 0 1 -983 -2394 )">
    <use xlink:href="#widget3" filter="url(#filter2)" />
    <use xlink:href="#widget3" />
  </g>
</svg>