<?xml version="1.0" encoding="utf-8"?>
<svg version="1.1" xmlns:xlink="http://www.w3.org/1999/xlink" width="64px" height="64px" xmlns="http://www.w3.org/2000/svg">
  <g transform="matrix(1 0 0 1 -771 -1936 )">
    <path d="M 800.333511537483 1936.61306260062  C 801.22026999089 1936.53772771924  802.109897522075 1936.5  803 1936.5  C 820.39696961967 1936.5  834.5 1950.60303038033  834.5 1968  C 834.5 1985.39696961967  820.39696961967 1999.5  803 1999.5  C 785.60303038033 1999.5  771.5 1985.39696961967  771.5 1968  C 771.5 1962.63735536427  772.869029054164 1957.36633840497  775.473635776507 1952.68499647495  L 802.75 1968.43301270189  A 0.5 0.5 0 0 0 803.497470760719 1967.9497720971 L 800.333511537502 1936.61306260062  Z " fill-rule="nonzero" fill="#99d5fd" stroke="none" />
    <path d="M 800.333511537483 1936.61306260062  C 801.22026999089 1936.53772771924  802.109897522075 1936.5  803 1936.5  C 820.39696961967 1936.5  834.5 1950.60303038033  834.5 1968  C 834.5 1985.39696961967  820.39696961967 1999.5  803 1999.5  C 785.60303038033 1999.5  771.5 1985.39696961967  771.5 1968  C 771.5 1962.63735536427  772.869029054164 1957.36633840497  775.473635776507 1952.68499647495  L 802.75 1968.43301270189  A 0.5 0.5 0 0 0 803.497470760719 1967.9497720971 L 800.333511537502 1936.61306260062  Z " stroke-width="1" stroke="#ffffff" fill="none" />
  </g>
</svg>