<?xml version="1.0" encoding="utf-8"?>
<svg version="1.1" xmlns:xlink="http://www.w3.org/1999/xlink" width="39px" height="39px" xmlns="http://www.w3.org/2000/svg">
  <g transform="matrix(1 0 0 1 -783 -1948 )">
    <path d="M 802.5 1948  C 813.42 1948  822 1956.58  822 1967.5  C 822 1978.42  813.42 1987  802.5 1987  C 791.58 1987  783 1978.42  783 1967.5  C 783 1956.58  791.58 1948  802.5 1948  Z " fill-rule="nonzero" fill="#ffffff" stroke="none" />
    <path d="M 802.5 1948.5  C 813.14 1948.5  821.5 1956.86  821.5 1967.5  C 821.5 1978.14  813.14 1986.5  802.5 1986.5  C 791.86 1986.5  783.5 1978.14  783.5 1967.5  C 783.5 1956.86  791.86 1948.5  802.5 1948.5  Z " stroke-width="1" stroke="#ffffff" fill="none" />
  </g>
</svg>