<?xml version="1.0" encoding="utf-8"?>
<svg version="1.1" xmlns:xlink="http://www.w3.org/1999/xlink" width="64px" height="64px" xmlns="http://www.w3.org/2000/svg">
  <g transform="matrix(1 0 0 1 -1006 -1936 )">
    <path d="M 1035.33351153748 1936.61306260062  C 1036.22026999089 1936.53772771924  1037.10989752208 1936.5  1038 1936.5  C 1055.39696961967 1936.5  1069.5 1950.60303038033  1069.5 1968  C 1069.5 1985.39696961967  1055.39696961967 1999.5  1038 1999.5  C 1021.8520144918 1999.5  1008.34901558179 1987.29642682772  1006.67219041708 1971.28974163612  L 1038.04431834382 1968.49803201142  A 0.5 0.5 0 0 0 1038.49747076072 1967.9497720971 L 1035.3335115375 1936.61306260062  Z " fill-rule="nonzero" fill="#0096fa" stroke="none" />
    <path d="M 1035.33351153748 1936.61306260062  C 1036.22026999089 1936.53772771924  1037.10989752208 1936.5  1038 1936.5  C 1055.39696961967 1936.5  1069.5 1950.60303038033  1069.5 1968  C 1069.5 1985.39696961967  1055.39696961967 1999.5  1038 1999.5  C 1021.8520144918 1999.5  1008.34901558179 1987.29642682772  1006.67219041708 1971.28974163612  L 1038.04431834382 1968.49803201142  A 0.5 0.5 0 0 0 1038.49747076072 1967.9497720971 L 1035.3335115375 1936.61306260062  Z " stroke-width="1" stroke="#ffffff" fill="none" />
  </g>
</svg>