<?xml version="1.0" encoding="utf-8"?>
<svg version="1.1" xmlns:xlink="http://www.w3.org/1999/xlink" width="48px" height="48px" xmlns="http://www.w3.org/2000/svg">
  <g transform="matrix(1 0 0 1 -300 -199 )">
    <path d="M 301 201  A 1 1 0 0 1 302 200 L 346 200  A 1 1 0 0 1 347 201 L 347 245  A 1 1 0 0 1 346 246 L 302 246  A 1 1 0 0 1 301 245 L 301 201  Z " fill-rule="nonzero" fill="#f2f2f2" stroke="none" />
    <path d="M 300.5 201  A 1.5 1.5 0 0 1 302 199.5 L 346 199.5  A 1.5 1.5 0 0 1 347.5 201 L 347.5 245  A 1.5 1.5 0 0 1 346 246.5 L 302 246.5  A 1.5 1.5 0 0 1 300.5 245 L 300.5 201  Z " stroke-width="1" stroke="#000000" fill="none" stroke-opacity="0.0470588235294118" />
  </g>
</svg>