<?xml version="1.0" encoding="utf-8"?>
<svg version="1.1" xmlns:xlink="http://www.w3.org/1999/xlink" width="69px" height="61px" xmlns="http://www.w3.org/2000/svg">
  <g transform="matrix(1 0 0 1 -1244 -324 )">
    <path d="M 1244 324  L 1313 324  L 1313 385  L 1244 385  L 1244 324  " fill-rule="nonzero" fill="#cccccc" stroke="none" />
    <path d="M 1248 328  L 1309 328  L 1309 381  L 1248 381  L 1248 328  " fill-rule="nonzero" fill="#ffffff" stroke="none" />
    <path d="M 1284.455 342.3  C 1281.893 342.3  1279.88 340.287  1279.88 337.725  C 1279.88 335.163  1281.893 333.15  1284.455 333.15  C 1287.017 333.15  1289.03 335.163  1289.03 337.725  C 1289.03 340.287  1287.017 342.3  1284.455 342.3  " fill-rule="nonzero" fill="#cccccc" stroke="none" />
    <path d="M 1250 380  L 1250 352.5  L 1264.5 340  L 1284.8 353.478260869565  L 1296.4 347.5  L 1308 353.478260869565  L 1308 380  L 1250 380  " fill-rule="nonzero" fill="#169bd5" stroke="none" />
  </g>
</svg>