<?xml version="1.0" encoding="utf-8"?>
<svg version="1.1" xmlns:xlink="http://www.w3.org/1999/xlink" width="10px" height="10px" xmlns="http://www.w3.org/2000/svg">
  <g transform="matrix(1 0 0 1 -615 -452 )">
    <path d="M 620 453  C 622.24 453  624 454.76  624 457  C 624 459.24  622.24 461  620 461  C 617.76 461  616 459.24  616 457  C 616 454.76  617.76 453  620 453  Z " fill-rule="nonzero" fill="#f59a23" stroke="none" />
    <path d="M 620 453  C 622.24 453  624 454.76  624 457  C 624 459.24  622.24 461  620 461  C 617.76 461  616 459.24  616 457  C 616 454.76  617.76 453  620 453  Z " stroke-width="2" stroke="#ffffff" fill="none" />
  </g>
</svg>