<?xml version="1.0" encoding="utf-8"?>
<svg version="1.1" xmlns:xlink="http://www.w3.org/1999/xlink" width="10px" height="10px" xmlns="http://www.w3.org/2000/svg">
  <g transform="matrix(1 0 0 1 -397 -452 )">
    <path d="M 402 453  C 404.24 453  406 454.76  406 457  C 406 459.24  404.24 461  402 461  C 399.76 461  398 459.24  398 457  C 398 454.76  399.76 453  402 453  Z " fill-rule="nonzero" fill="#f59a23" stroke="none" />
    <path d="M 402 453  C 404.24 453  406 454.76  406 457  C 406 459.24  404.24 461  402 461  C 399.76 461  398 459.24  398 457  C 398 454.76  399.76 453  402 453  Z " stroke-width="2" stroke="#ffffff" fill="none" />
  </g>
</svg>