<?xml version="1.0" encoding="utf-8"?>
<svg version="1.1" xmlns:xlink="http://www.w3.org/1999/xlink" width="36px" height="36px" xmlns="http://www.w3.org/2000/svg">
  <g transform="matrix(1 0 0 1 -1179 -346 )">
    <path d="M 23.1428571428571 28.1953125  C 23.3169642857143 28.1953125  23.4709821428571 28.1171875  23.6049107142857 27.9609375  L 26.5379464285714 24.5390625  C 26.671875 24.3828125  26.7388392857143 24.203125  26.7388392857143 24  C 26.7388392857143 23.796875  26.671875 23.6171875  26.5379464285714 23.4609375  L 21.8571428571429 18  L 26.5379464285714 12.5390625  C 26.671875 12.3828125  26.7388392857143 12.203125  26.7388392857143 12  C 26.7388392857143 11.796875  26.671875 11.6171875  26.5379464285714 11.4609375  L 23.6049107142857 8.0390625  C 23.4709821428571 7.8828125  23.3169642857143 7.8046875  23.1428571428571 7.8046875  C 22.96875 7.8046875  22.8147321428571 7.8828125  22.6808035714286 8.0390625  L 18 13.5  L 13.3191964285714 8.0390625  C 13.1852678571429 7.8828125  13.03125 7.8046875  12.8571428571429 7.8046875  C 12.6830357142857 7.8046875  12.5290178571429 7.8828125  12.3950892857143 8.0390625  L 9.46205357142857 11.4609375  C 9.328125 11.6171875  9.26116071428572 11.796875  9.26116071428572 12  C 9.26116071428572 12.203125  9.328125 12.3828125  9.46205357142857 12.5390625  L 14.1428571428571 18  L 9.46205357142857 23.4609375  C 9.328125 23.6171875  9.26116071428572 23.796875  9.26116071428572 24  C 9.26116071428572 24.203125  9.328125 24.3828125  9.46205357142857 24.5390625  L 12.3950892857143 27.9609375  C 12.5290178571429 28.1171875  12.6830357142857 28.1953125  12.8571428571429 28.1953125  C 13.03125 28.1953125  13.1852678571429 28.1171875  13.3191964285714 27.9609375  L 18 22.5  L 22.6808035714286 27.9609375  C 22.8147321428571 28.1171875  22.96875 28.1953125  23.1428571428571 28.1953125  Z M 35.0558035714286 1.1015625  C 35.6852678571429 1.8359375  36 2.71875  36 3.75  L 36 32.25  C 36 33.28125  35.6852678571429 34.1640625  35.0558035714286 34.8984375  C 34.4263392857143 35.6328125  33.6696428571429 36  32.7857142857143 36  L 3.21428571428571 36  C 2.33035714285714 36  1.57366071428571 35.6328125  0.944196428571429 34.8984375  C 0.314732142857143 34.1640625  0 33.28125  0 32.25  L 0 3.75  C 0 2.71875  0.314732142857143 1.8359375  0.944196428571429 1.1015625  C 1.57366071428571 0.367187499999996  2.33035714285714 0  3.21428571428571 0  L 32.7857142857143 0  C 33.6696428571429 0  34.4263392857143 0.367187499999996  35.0558035714286 1.1015625  Z " fill-rule="nonzero" fill="#ffffff" stroke="none" transform="matrix(1 0 0 1 1179 346 )" />
  </g>
</svg>