<?xml version="1.0" encoding="utf-8"?>
<svg version="1.1" xmlns:xlink="http://www.w3.org/1999/xlink" width="8px" height="8px" xmlns="http://www.w3.org/2000/svg">
  <g transform="matrix(1 0 0 1 -1287 -452 )">
    <path d="M 1291 452  C 1293.24 452  1295 453.76  1295 456  C 1295 458.24  1293.24 460  1291 460  C 1288.76 460  1287 458.24  1287 456  C 1287 453.76  1288.76 452  1291 452  Z " fill-rule="nonzero" fill="#f59a23" stroke="none" />
    <path d="M 1291 452.5  C 1292.96 452.5  1294.5 454.04  1294.5 456  C 1294.5 457.96  1292.96 459.5  1291 459.5  C 1289.04 459.5  1287.5 457.96  1287.5 456  C 1287.5 454.04  1289.04 452.5  1291 452.5  Z " stroke-width="1" stroke="#ffffff" fill="none" />
  </g>
</svg>