<?xml version="1.0" encoding="utf-8"?>
<svg version="1.1" xmlns:xlink="http://www.w3.org/1999/xlink" width="10px" height="10px" xmlns="http://www.w3.org/2000/svg">
  <g transform="matrix(1 0 0 1 -674 -449 )">
    <path d="M 679 450  C 681.24 450  683 451.76  683 454  C 683 456.24  681.24 458  679 458  C 676.76 458  675 456.24  675 454  C 675 451.76  676.76 450  679 450  Z " fill-rule="nonzero" fill="#f59a23" stroke="none" />
    <path d="M 679 450  C 681.24 450  683 451.76  683 454  C 683 456.24  681.24 458  679 458  C 676.76 458  675 456.24  675 454  C 675 451.76  676.76 450  679 450  Z " stroke-width="2" stroke="#ffffff" fill="none" />
  </g>
</svg>