<?xml version="1.0" encoding="utf-8"?>
<svg version="1.1" xmlns:xlink="http://www.w3.org/1999/xlink" width="92px" height="89px" xmlns="http://www.w3.org/2000/svg">
  <g transform="matrix(1 0 0 1 -102 -249 )">
    <path d="M 74.6846590909091 41.0234375  C 75.0767045454545 41.4026988636364  75.2727272727273 41.8873106060606  75.2727272727273 42.4772727272727  L 75.2727272727273 46.5227272727273  C 75.2727272727273 47.1126893939394  75.0767045454545 47.5973011363636  74.6846590909091 47.9765625  C 74.2926136363636 48.3558238636364  73.7916666666667 48.5454545454545  73.1818181818182 48  L 50 48  L 50 70.7954545454545  C 50.1818181818182 71.3854166666667  49.9857954545455 71.8700284090909  49.59375 72.2492897727273  C 49.2017045454545 72.6285511363636  48.7007575757576 72.8181818181818  48.0909090909091 72.8181818181818  L 43.9090909090909 72.8181818181818  C 43.2992424242424 72.8181818181818  42.7982954545455 72.6285511363636  42.40625 72.2492897727273  C 42.0142045454545 71.8700284090909  41.8181818181818 71.3854166666667  42 70.7954545454545  L 42 48  L 18.8181818181818 48  C 18.2083333333333 48.5454545454545  17.7073863636364 48.3558238636364  17.3153409090909 47.9765625  C 16.9232954545455 47.5973011363636  16.7272727272727 47.1126893939394  16.7272727272727 46.5227272727273  L 16.7272727272727 42.4772727272727  C 16.7272727272727 41.8873106060606  16.9232954545455 41.4026988636364  17.3153409090909 41.0234375  C 17.7073863636364 40.6441761363636  18.2083333333333 40.4545454545455  18.8181818181818 41  L 42 41  L 42 18.2045454545455  C 41.8181818181818 17.6145833333333  42.0142045454545 17.1299715909091  42.40625 16.7507102272727  C 42.7982954545455 16.3714488636364  43.2992424242424 16.1818181818182  43.9090909090909 16.1818181818182  L 48.0909090909091 16.1818181818182  C 48.7007575757576 16.1818181818182  49.2017045454545 16.3714488636364  49.59375 16.7507102272727  C 49.9857954545455 17.1299715909091  50.1818181818182 17.6145833333333  50 18.2045454545455  L 50 41  L 73.1818181818182 41  C 73.7916666666667 40.4545454545455  74.2926136363636 40.6441761363636  74.6846590909091 41.0234375  Z M 80.5653409090909 77.9382102272727  C 82.6126893939394 75.9576231060606  83.6363636363636 73.5767045454545  83 70.7954545454545  L 83 18.2045454545455  C 83.6363636363636 15.4232954545455  82.6126893939394 13.0423768939394  80.5653409090909 11.0617897727273  C 78.5179924242424 9.08120265151514  76.0568181818182 8.09090909090909  73.1818181818182 8  L 18.8181818181818 8  C 15.9431818181818 8.09090909090909  13.4820075757576 9.08120265151514  11.4346590909091 11.0617897727273  C 9.38731060606061 13.0423768939394  8.36363636363636 15.4232954545455  9 18.2045454545455  L 9 70.7954545454545  C 8.36363636363636 73.5767045454545  9.38731060606061 75.9576231060606  11.4346590909091 77.9382102272727  C 13.4820075757576 79.9187973484848  15.9431818181818 80.9090909090909  18.8181818181818 81  L 73.1818181818182 81  C 76.0568181818182 80.9090909090909  78.5179924242424 79.9187973484848  80.5653409090909 77.9382102272727  Z M 86.4786931818182 5.34126420454546  C 90.1595643939394 8.90210700757575  92 13.1898674242424  92 18.2045454545455  L 92 70.7954545454545  C 92 75.8101325757576  90.1595643939394 80.0978929924242  86.4786931818182 83.6587357954545  C 82.797821969697 87.2195785984848  78.3655303030303 89  73.1818181818182 89  L 18.8181818181818 89  C 13.6344696969697 89  9.20217803030303 87.2195785984848  5.52130681818182 83.6587357954545  C 1.84043560606061 80.0978929924242  0 75.8101325757576  0 70.7954545454545  L 0 18.2045454545455  C 0 13.1898674242424  1.84043560606061 8.90210700757575  5.52130681818182 5.34126420454546  C 9.20217803030303 1.78042140151514  13.6344696969697 0  18.8181818181818 0  L 73.1818181818182 0  C 78.3655303030303 0  82.797821969697 1.78042140151514  86.4786931818182 5.34126420454546  Z " fill-rule="nonzero" fill="#000000" stroke="none" transform="matrix(1 0 0 1 102 249 )" />
  </g>
</svg>