<?xml version="1.0" encoding="utf-8"?>
<svg version="1.1" xmlns:xlink="http://www.w3.org/1999/xlink" width="14px" height="14px" xmlns="http://www.w3.org/2000/svg">
  <g transform="matrix(1 0 0 1 -717 -447 )">
    <path d="M 724 448  C 727.36 448  730 450.64  730 454  C 730 457.36  727.36 460  724 460  C 720.64 460  718 457.36  718 454  C 718 450.64  720.64 448  724 448  Z " fill-rule="nonzero" fill="#d9001b" stroke="none" />
    <path d="M 724 448  C 727.36 448  730 450.64  730 454  C 730 457.36  727.36 460  724 460  C 720.64 460  718 457.36  718 454  C 718 450.64  720.64 448  724 448  Z " stroke-width="2" stroke="#ffffff" fill="none" />
  </g>
</svg>