<?xml version="1.0" encoding="utf-8"?>
<svg version="1.1" xmlns:xlink="http://www.w3.org/1999/xlink" width="393px" height="156px" xmlns="http://www.w3.org/2000/svg">
  <g transform="matrix(1 0 0 1 -515 -1099 )">
    <path d="M 515 1099  L 908 1099  L 908 1255  L 515 1255  L 515 1099  " fill-rule="nonzero" fill="#cccccc" stroke="none" />
    <path d="M 526 1110  L 897 1110  L 897 1244  L 526 1244  L 526 1110  " fill-rule="nonzero" fill="#ffffff" stroke="none" />
    <path d="M 731.06 1145.8  C 724.508 1145.8  719.36 1140.652  719.36 1134.1  C 719.36 1127.548  724.508 1122.4  731.06 1122.4  C 737.612 1122.4  742.76 1127.548  742.76 1134.1  C 742.76 1140.652  737.612 1145.8  731.06 1145.8  " fill-rule="nonzero" fill="#cccccc" stroke="none" />
    <path d="M 530 1240  L 530 1170.7  L 620.75 1139.2  L 747.8 1209.99083969466  L 820.4 1158.1  L 893 1209.99083969466  L 893 1240  L 530 1240  " fill-rule="nonzero" fill="#169bd5" stroke="none" />
  </g>
</svg>