<?xml version="1.0" encoding="utf-8"?>
<svg version="1.1" xmlns:xlink="http://www.w3.org/1999/xlink" width="87px" height="84px" xmlns="http://www.w3.org/2000/svg">
  <g transform="matrix(1 0 0 1 -328 -242 )">
    <path d="M 70.6257102272727 38.71875  C 70.9964488636364 39.0767045454545  71.1818181818182 39.5340909090909  71.1818181818182 40.0909090909091  L 71.1818181818182 43.9090909090909  C 71.1818181818182 44.4659090909091  70.9964488636364 44.9232954545455  70.6257102272727 45.28125  C 70.2549715909091 45.6392045454545  69.78125 45.8181818181818  69.2045454545455 45  L 47 45  L 47 66.8181818181818  C 47.4545454545455 67.375  47.2691761363636 67.8323863636364  46.8984375 68.1903409090909  C 46.5276988636364 68.5482954545455  46.0539772727273 68.7272727272727  45.4772727272727 68.7272727272727  L 41.5227272727273 68.7272727272727  C 40.9460227272727 68.7272727272727  40.4723011363636 68.5482954545455  40.1015625 68.1903409090909  C 39.7308238636364 67.8323863636364  39.5454545454545 67.375  40 66.8181818181818  L 40 45  L 17.7954545454545 45  C 17.21875 45.8181818181818  16.7450284090909 45.6392045454545  16.3742897727273 45.28125  C 16.0035511363636 44.9232954545455  15.8181818181818 44.4659090909091  15.8181818181818 43.9090909090909  L 15.8181818181818 40.0909090909091  C 15.8181818181818 39.5340909090909  16.0035511363636 39.0767045454545  16.3742897727273 38.71875  C 16.7450284090909 38.3607954545455  17.21875 38.1818181818182  17.7954545454545 39  L 40 39  L 40 17.1818181818182  C 39.5454545454545 16.625  39.7308238636364 16.1676136363636  40.1015625 15.8096590909091  C 40.4723011363636 15.4517045454545  40.9460227272727 15.2727272727273  41.5227272727273 15.2727272727273  L 45.4772727272727 15.2727272727273  C 46.0539772727273 15.2727272727273  46.5276988636364 15.4517045454545  46.8984375 15.8096590909091  C 47.2691761363636 16.1676136363636  47.4545454545455 16.625  47 17.1818181818182  L 47 39  L 69.2045454545455 39  C 69.78125 38.1818181818182  70.2549715909091 38.3607954545455  70.6257102272727 38.71875  Z M 76.1867897727273 73.5596590909091  C 78.1228693181818 71.6903409090909  79.0909090909091 69.4431818181818  79 66.8181818181818  L 79 17.1818181818182  C 79.0909090909091 14.5568181818182  78.1228693181818 12.3096590909091  76.1867897727273 10.4403409090909  C 74.2507102272727 8.57102272727272  71.9232954545455 7.63636363636364  69.2045454545455 8  L 17.7954545454545 8  C 15.0767045454545 7.63636363636364  12.7492897727273 8.57102272727272  10.8132102272727 10.4403409090909  C 8.87713068181818 12.3096590909091  7.90909090909091 14.5568181818182  8 17.1818181818182  L 8 66.8181818181818  C 7.90909090909091 69.4431818181818  8.87713068181818 71.6903409090909  10.8132102272727 73.5596590909091  C 12.7492897727273 75.4289772727273  15.0767045454545 76.3636363636364  17.7954545454545 76  L 69.2045454545455 76  C 71.9232954545455 76.3636363636364  74.2507102272727 75.4289772727273  76.1867897727273 73.5596590909091  Z M 81.7787642045455 5.04119318181819  C 85.2595880681818 8.40198863636363  87 12.4488636363636  87 17.1818181818182  L 87 66.8181818181818  C 87 71.5511363636364  85.2595880681818 75.5980113636364  81.7787642045455 78.9588068181818  C 78.2979403409091 82.3196022727273  74.1065340909091 84  69.2045454545455 84  L 17.7954545454545 84  C 12.8934659090909 84  8.70205965909091 82.3196022727273  5.22123579545455 78.9588068181818  C 1.74041193181818 75.5980113636364  0 71.5511363636364  0 66.8181818181818  L 0 17.1818181818182  C 0 12.4488636363636  1.74041193181818 8.40198863636363  5.22123579545455 5.04119318181819  C 8.70205965909091 1.68039772727272  12.8934659090909 0  17.7954545454545 0  L 69.2045454545455 0  C 74.1065340909091 0  78.2979403409091 1.68039772727272  81.7787642045455 5.04119318181819  Z " fill-rule="nonzero" fill="#000000" stroke="none" transform="matrix(1 0 0 1 328 242 )" />
  </g>
</svg>