<?xml version="1.0" encoding="utf-8"?>
<svg version="1.1" xmlns:xlink="http://www.w3.org/1999/xlink" width="87px" height="84px" xmlns="http://www.w3.org/2000/svg">
  <g transform="matrix(1 0 0 1 -88 -242 )">
    <path d="M 88 242  L 175 242  L 175 326  L 88 326  L 88 242  " fill-rule="nonzero" fill="#cccccc" stroke="none" />
    <path d="M 94 248  L 169 248  L 169 320  L 94 320  L 94 248  " fill-rule="nonzero" fill="#ffffff" stroke="none" />
    <path d="M 139.54 267.2  C 136.012 267.2  133.24 264.428  133.24 260.9  C 133.24 257.372  136.012 254.6  139.54 254.6  C 143.068 254.6  145.84 257.372  145.84 260.9  C 145.84 264.428  143.068 267.2  139.54 267.2  " fill-rule="nonzero" fill="#cccccc" stroke="none" />
    <path d="M 96 318  L 96 280.6  L 113.75 263.6  L 138.6 278.606896551724  L 152.8 273.8  L 167 278.606896551724  L 167 318  L 96 318  " fill-rule="nonzero" fill="#169bd5" stroke="none" />
  </g>
</svg>