<?xml version="1.0" encoding="utf-8"?>
<svg version="1.1" xmlns:xlink="http://www.w3.org/1999/xlink" width="86px" height="84px" xmlns="http://www.w3.org/2000/svg">
  <g transform="matrix(1 0 0 1 -210 -242 )">
    <path d="M 210 242  L 296 242  L 296 326  L 210 326  L 210 242  " fill-rule="nonzero" fill="#cccccc" stroke="none" />
    <path d="M 216 248  L 290 248  L 290 320  L 216 320  L 216 248  " fill-rule="nonzero" fill="#ffffff" stroke="none" />
    <path d="M 261.02 267.2  C 257.492 267.2  254.72 264.428  254.72 260.9  C 254.72 257.372  257.492 254.6  261.02 254.6  C 264.548 254.6  267.32 257.372  267.32 260.9  C 267.32 264.428  264.548 267.2  261.02 267.2  " fill-rule="nonzero" fill="#cccccc" stroke="none" />
    <path d="M 218 318  L 218 280.6  L 235.5 263.6  L 260 278.148837209302  L 274 273.8  L 288 278.148837209302  L 288 318  L 218 318  " fill-rule="nonzero" fill="#169bd5" stroke="none" />
  </g>
</svg>