<?xml version="1.0" encoding="utf-8"?>
<svg version="1.1" xmlns:xlink="http://www.w3.org/1999/xlink" width="29px" height="29px" xmlns="http://www.w3.org/2000/svg">
  <g transform="matrix(1 0 0 1 -157 -231 )">
    <path d="M 20.50390625 18.125  C 20.50390625 18.2886284722222  20.4499627976191 18.4333767361111  20.3420758928571 18.5592447916667  L 17.9793526785714 21.3157552083333  C 17.8714657738095 21.4416232638889  17.7473958333333 21.5045572916667  17.6071428571429 21.5045572916667  C 17.4668898809524 21.5045572916667  17.3428199404762 21.4416232638889  17.2349330357143 21.3157552083333  L 14.5 18.125  L 11.7650669642857 21.3157552083333  C 11.6571800595238 21.4416232638889  11.5331101190476 21.5045572916667  11.3928571428571 21.5045572916667  C 11.2526041666667 21.5045572916667  11.1285342261905 21.4416232638889  11.0206473214286 21.3157552083333  L 8.65792410714286 18.5592447916667  C 8.55003720238095 18.4333767361111  8.49609375 18.2886284722222  8.49609375 18.125  C 8.49609375 17.9613715277778  8.55003720238095 17.8166232638889  8.65792410714286 17.6907552083333  L 11.3928571428571 14.5  L 8.65792410714286 11.3092447916667  C 8.55003720238095 11.1833767361111  8.49609375 11.0386284722222  8.49609375 10.875  C 8.49609375 10.7113715277778  8.55003720238095 10.5666232638889  8.65792410714286 10.4407552083333  L 11.0206473214286 7.68424479166667  C 11.1285342261905 7.55837673611111  11.2526041666667 7.49544270833333  11.3928571428571 7.49544270833333  C 11.5331101190476 7.49544270833333  11.6571800595238 7.55837673611111  11.7650669642857 7.68424479166667  L 14.5 10.875  L 17.2349330357143 7.68424479166667  C 17.3428199404762 7.55837673611111  17.4668898809524 7.49544270833333  17.6071428571429 7.49544270833333  C 17.7473958333333 7.49544270833333  17.8714657738095 7.55837673611111  17.9793526785714 7.68424479166667  L 20.3420758928571 10.4407552083333  C 20.4499627976191 10.5666232638889  20.50390625 10.7113715277778  20.50390625 10.875  C 20.50390625 11.0386284722222  20.4499627976191 11.1833767361111  20.3420758928571 11.3092447916667  L 17.6071428571429 14.5  L 20.3420758928571 17.6907552083333  C 20.4499627976191 17.8166232638889  20.50390625 17.9613715277778  20.50390625 18.125  Z M 4.14285714285714 5  L 4.14285714285714 24  L 24.8571428571429 24  L 24.8571428571429 5  L 4.14285714285714 5  Z M 28.2393973214286 0.887369791666668  C 28.7464657738095 1.47894965277778  29 2.19010416666667  29 3.02083333333333  L 29 25.9791666666667  C 29 26.8098958333333  28.7464657738095 27.5210503472222  28.2393973214286 28.1126302083333  C 27.7323288690476 28.7042100694444  27.1227678571429 29  26.4107142857143 29  L 2.58928571428571 29  C 1.87723214285714 29  1.26767113095238 28.7042100694444  0.760602678571429 28.1126302083333  C 0.253534226190476 27.5210503472222  0 26.8098958333333  0 25.9791666666667  L 0 3.02083333333333  C 0 2.19010416666667  0.253534226190476 1.47894965277778  0.760602678571429 0.887369791666668  C 1.26767113095238 0.295789930555553  1.87723214285714 0  2.58928571428571 0  L 26.4107142857143 0  C 27.1227678571429 0  27.7323288690476 0.295789930555553  28.2393973214286 0.887369791666668  Z " fill-rule="nonzero" fill="#000000" stroke="none" transform="matrix(1 0 0 1 157 231 )" />
  </g>
</svg>