<?xml version="1.0" encoding="utf-8"?>
<svg version="1.1" xmlns:xlink="http://www.w3.org/1999/xlink" width="401px" height="164px" xmlns="http://www.w3.org/2000/svg">
  <g transform="matrix(1 0 0 1 -513 -1097 )">
    <path d="M 513 1097  L 914 1097  L 914 1261  L 513 1261  L 513 1097  " fill-rule="nonzero" fill="#cccccc" stroke="none" />
    <path d="M 524 1108  L 903 1108  L 903 1250  L 524 1250  L 524 1108  " fill-rule="nonzero" fill="#ffffff" stroke="none" />
    <path d="M 733.82 1146.2  C 726.932 1146.2  721.52 1140.788  721.52 1133.9  C 721.52 1127.012  726.932 1121.6  733.82 1121.6  C 740.708 1121.6  746.12 1127.012  746.12 1133.9  C 746.12 1140.788  740.708 1146.2  733.82 1146.2  " fill-rule="nonzero" fill="#cccccc" stroke="none" />
    <path d="M 528 1246  L 528 1172.3  L 620.75 1138.8  L 750.6 1213.11820448878  L 824.8 1158.9  L 899 1213.11820448878  L 899 1246  L 528 1246  " fill-rule="nonzero" fill="#169bd5" stroke="none" />
  </g>
</svg>