<?xml version="1.0" encoding="utf-8"?>
<svg version="1.1" xmlns:xlink="http://www.w3.org/1999/xlink" width="8px" height="8px" xmlns="http://www.w3.org/2000/svg">
  <g transform="matrix(1 0 0 1 -1330 -450 )">
    <path d="M 1334 450  C 1336.24 450  1338 451.76  1338 454  C 1338 456.24  1336.24 458  1334 458  C 1331.76 458  1330 456.24  1330 454  C 1330 451.76  1331.76 450  1334 450  Z " fill-rule="nonzero" fill="#e9e9e9" stroke="none" />
    <path d="M 1334 450.5  C 1335.96 450.5  1337.5 452.04  1337.5 454  C 1337.5 455.96  1335.96 457.5  1334 457.5  C 1332.04 457.5  1330.5 455.96  1330.5 454  C 1330.5 452.04  1332.04 450.5  1334 450.5  Z " stroke-width="1" stroke="#ffffff" fill="none" />
  </g>
</svg>