<?xml version="1.0" encoding="utf-8"?>
<svg version="1.1" xmlns:xlink="http://www.w3.org/1999/xlink" width="59px" height="83px" xmlns="http://www.w3.org/2000/svg">
  <g transform="matrix(1 0 0 1 -717 -537 )">
    <path d="M 717 537  L 776 537  L 776 620  L 717 620  L 717 537  " fill-rule="nonzero" fill="#cccccc" stroke="none" />
    <path d="M 721 541  L 772 541  L 772 616  L 721 616  L 721 541  " fill-rule="nonzero" fill="#ffffff" stroke="none" />
    <path d="M 752.105 558.3  C 749.627 558.3  747.68 556.353  747.68 553.875  C 747.68 551.397  749.627 549.45  752.105 549.45  C 754.583 549.45  756.53 551.397  756.53 553.875  C 756.53 556.353  754.583 558.3  752.105 558.3  " fill-rule="nonzero" fill="#cccccc" stroke="none" />
    <path d="M 723 615  L 723 575.4  L 735 557.4  L 751.8 571.8  L 761.4 568.2  L 771 571.8  L 771 615  L 723 615  " fill-rule="nonzero" fill="#169bd5" stroke="none" />
  </g>
</svg>