<?xml version="1.0" encoding="utf-8"?>
<svg version="1.1" xmlns:xlink="http://www.w3.org/1999/xlink" width="155px" height="80px" xmlns="http://www.w3.org/2000/svg">
  <g transform="matrix(1 0 0 1 -369 -540 )">
    <path d="M 369 540  L 524 540  L 524 620  L 369 620  L 369 540  " fill-rule="nonzero" fill="#cccccc" stroke="none" />
    <path d="M 375 546  L 518 546  L 518 614  L 375 614  L 375 546  " fill-rule="nonzero" fill="#ffffff" stroke="none" />
    <path d="M 455.6 564  C 452.24 564  449.6 561.36  449.6 558  C 449.6 554.64  452.24 552  455.6 552  C 458.96 552  461.6 554.64  461.6 558  C 461.6 561.36  458.96 564  455.6 564  " fill-rule="nonzero" fill="#cccccc" stroke="none" />
    <path d="M 377 612  L 377 576.8  L 411.75 560.8  L 460.4 592.18064516129  L 488.2 570.4  L 516 592.18064516129  L 516 612  L 377 612  " fill-rule="nonzero" fill="#169bd5" stroke="none" />
  </g>
</svg>