<?xml version="1.0" encoding="utf-8"?>
<svg version="1.1" xmlns:xlink="http://www.w3.org/1999/xlink" width="10px" height="10px" xmlns="http://www.w3.org/2000/svg">
  <g transform="matrix(1 0 0 1 -392 -450 )">
    <path d="M 397 451  C 399.24 451  401 452.76  401 455  C 401 457.24  399.24 459  397 459  C 394.76 459  393 457.24  393 455  C 393 452.76  394.76 451  397 451  Z " fill-rule="nonzero" fill="#1890ff" stroke="none" />
    <path d="M 397 451  C 399.24 451  401 452.76  401 455  C 401 457.24  399.24 459  397 459  C 394.76 459  393 457.24  393 455  C 393 452.76  394.76 451  397 451  Z " stroke-width="2" stroke="#ffffff" fill="none" />
  </g>
</svg>