<?xml version="1.0" encoding="utf-8"?>
<svg version="1.1" xmlns:xlink="http://www.w3.org/1999/xlink" width="31px" height="31px" xmlns="http://www.w3.org/2000/svg">
  <g transform="matrix(1 0 0 1 -1098 -248 )">
    <path d="M 21.91796875 19.375  C 21.91796875 19.5499131944444  21.8603050595238 19.7046440972222  21.7449776785714 19.8391927083333  L 19.2193080357143 22.7858072916667  C 19.1039806547619 22.9203559027778  18.9713541666667 22.9876302083333  18.8214285714286 22.9876302083333  C 18.6715029761905 22.9876302083333  18.5388764880952 22.9203559027778  18.4235491071429 22.7858072916667  L 15.5 19.375  L 12.5764508928571 22.7858072916667  C 12.4611235119048 22.9203559027778  12.3284970238095 22.9876302083333  12.1785714285714 22.9876302083333  C 12.0286458333333 22.9876302083333  11.8960193452381 22.9203559027778  11.7806919642857 22.7858072916667  L 9.25502232142857 19.8391927083333  C 9.13969494047619 19.7046440972222  9.08203125 19.5499131944444  9.08203125 19.375  C 9.08203125 19.2000868055556  9.13969494047619 19.0453559027778  9.25502232142857 18.9108072916667  L 12.1785714285714 15.5  L 9.25502232142857 12.0891927083333  C 9.13969494047619 11.9546440972222  9.08203125 11.7999131944444  9.08203125 11.625  C 9.08203125 11.4500868055556  9.13969494047619 11.2953559027778  9.25502232142857 11.1608072916667  L 11.7806919642857 8.21419270833333  C 11.8960193452381 8.07964409722222  12.0286458333333 8.01236979166667  12.1785714285714 8.01236979166667  C 12.3284970238095 8.01236979166667  12.4611235119048 8.07964409722222  12.5764508928571 8.21419270833333  L 15.5 11.625  L 18.4235491071429 8.21419270833333  C 18.5388764880952 8.07964409722222  18.6715029761905 8.01236979166667  18.8214285714286 8.01236979166667  C 18.9713541666667 8.01236979166667  19.1039806547619 8.07964409722222  19.2193080357143 8.21419270833333  L 21.7449776785714 11.1608072916667  C 21.8603050595238 11.2953559027778  21.91796875 11.4500868055556  21.91796875 11.625  C 21.91796875 11.7999131944444  21.8603050595238 11.9546440972222  21.7449776785714 12.0891927083333  L 18.8214285714286 15.5  L 21.7449776785714 18.9108072916667  C 21.8603050595238 19.0453559027778  21.91796875 19.2000868055556  21.91796875 19.375  Z M 5 5.16666666666667  L 5 25.8333333333333  L 26 25.8333333333333  L 26 5.16666666666667  L 5 5.16666666666667  Z M 30.1869419642857 0.948567708333334  C 30.7289806547619 1.58094618055555  31 2.34114583333333  31 3.22916666666667  L 31 27.7708333333333  C 31 28.6588541666667  30.7289806547619 29.4190538194444  30.1869419642857 30.0514322916667  C 29.6449032738095 30.6838107638889  28.9933035714286 31  28.2321428571429 31  L 2.76785714285714 31  C 2.00669642857143 31  1.35509672619048 30.6838107638889  0.813058035714286 30.0514322916667  C 0.271019345238095 29.4190538194444  0 28.6588541666667  0 27.7708333333333  L 0 3.22916666666667  C 0 2.34114583333333  0.271019345238095 1.58094618055555  0.813058035714286 0.948567708333334  C 1.35509672619048 0.316189236111108  2.00669642857143 0  2.76785714285714 0  L 28.2321428571429 0  C 28.9933035714286 0  29.6449032738095 0.316189236111108  30.1869419642857 0.948567708333334  Z " fill-rule="nonzero" fill="#ffffff" stroke="none" transform="matrix(1 0 0 1 1098 248 )" />
  </g>
</svg>